<?xml version="1.0" encoding="UTF-8" standalone="no"?>
<!-- Generator: Adobe Illustrator 19.0.0, SVG Export Plug-In . SVG Version: 6.00 Build 0)  -->

<svg
   xmlns:dc="http://purl.org/dc/elements/1.1/"
   xmlns:cc="http://creativecommons.org/ns#"
   xmlns:rdf="http://www.w3.org/1999/02/22-rdf-syntax-ns#"
   xmlns:svg="http://www.w3.org/2000/svg"
   xmlns="http://www.w3.org/2000/svg"
   xmlns:sodipodi="http://sodipodi.sourceforge.net/DTD/sodipodi-0.dtd"
   xmlns:inkscape="http://www.inkscape.org/namespaces/inkscape"
   version="1.1"
   id="Layer_1"
   x="0px"
   y="0px"
   width="100"
   height="100"
   viewBox="198 218 50 50"
   xml:space="preserve"
   inkscape:version="0.48.4 r9939"
   sodipodi:docname="add_pin.svg"><metadata
     id="metadata3051"><rdf:RDF><cc:Work
         rdf:about=""><dc:format>image/svg+xml</dc:format><dc:type
           rdf:resource="http://purl.org/dc/dcmitype/StillImage" /><dc:title /></cc:Work></rdf:RDF></metadata><defs
     id="defs3049" /><sodipodi:namedview
     pagecolor="#ffffff"
     bordercolor="#666666"
     borderopacity="1"
     objecttolerance="10"
     gridtolerance="10"
     guidetolerance="10"
     inkscape:pageopacity="0"
     inkscape:pageshadow="2"
     inkscape:window-width="1920"
     inkscape:window-height="1080"
     id="namedview3047"
     showgrid="true"
     inkscape:zoom="4.355"
     inkscape:cx="-20.916356"
     inkscape:cy="93.776297"
     inkscape:window-x="0"
     inkscape:window-y="0"
     inkscape:window-maximized="0"
     inkscape:current-layer="layer1"
     inkscape:snap-global="false"><inkscape:grid
       type="xygrid"
       id="grid2991" /></sodipodi:namedview><style
     type="text/css"
     id="style3039">
	.st3{stroke-linecap:round;stroke-linejoin:round;stroke-miterlimit:10;}
</style><path
     style="fill:#3f51b5;fill-opacity:1;stroke:#ffffff;stroke-width:1;stroke-linecap:round;stroke-linejoin:round;stroke-miterlimit:4;stroke-opacity:1;stroke-dasharray:none"
     d="m 221.46719,265.92541 c -8.27122,-11.47412 -13.47963,-20.81761 -15.0195,-26.94385 -0.39769,-1.58217 -0.39925,-4.72782 -0.003,-6.78878 1.04577,-5.44424 3.7937,-9.28747 8.18264,-11.44415 2.4619,-1.20976 4.79799,-1.71128 7.95764,-1.70839 5.23241,0.005 8.99195,1.45848 12.06049,4.66338 2.62295,2.73951 4.05538,6.24521 4.42583,10.83169 0.19848,2.45727 -0.03,3.9813 -1.04089,6.94433 -1.05702,3.09814 -3.72452,8.40756 -6.36941,12.67774 -2.89125,4.66791 -8.76286,13.25022 -9.05522,13.23565 -0.0458,-0.002 -0.55798,-0.66271 -1.13821,-1.46762 l 0,0 z"
     id="path3528"
     inkscape:connector-curvature="0" /><g
     inkscape:groupmode="layer"
     id="layer1"
     inkscape:label="Plus"><path
       style="fill:#ffffff;fill-opacity:1;stroke:none"
       d="m 219.97592,226.3277 0,7.97295 -7.91162,0 0,5.33575 7.72763,0 0,8.15694 5.58107,0 0,-8.21827 7.91162,0 0,-5.39708 -8.03428,0 0,-7.91163 z"
       id="path2994"
       inkscape:connector-curvature="0" /></g></svg>