<?xml version="1.0" encoding="utf-8"?>
<!-- Generator: Adobe Illustrator 19.0.0, SVG Export Plug-In . SVG Version: 6.00 Build 0)  -->
<svg version="1.1" id="Layer_1" xmlns="http://www.w3.org/2000/svg" xmlns:xlink="http://www.w3.org/1999/xlink" x="0px" y="0px"
	 width="200px" height="200px" viewBox="198 218 100 100" style="enable-background:new 0 0 800 500;" xml:space="preserve">
<style type="text/css">
	.st3{stroke-linecap:round;stroke-linejoin:round;stroke-miterlimit:10;}
</style>
<g id="XMLID_33_">
	<path id="XMLID_41_" class="st3" d="M273.8,282h-4.2c0,0-2.6-7.3-3.3-9.3c-0.5-1.3-1.7-2.2-3.1-2.2c0,0-10.3,0-10.3,0
		c-0.1,0,0-5.3,0-5.6c0-2.2,0.1-4.4,0-6.7c0-1,0-1.9,0-2.9c0-0.1-0.1-0.9,0-0.9c0,0,16.9-12.4,16.9-12.4c0.8-0.6,1-1.8,0.4-2.6
		c-0.6-0.8-1.8-1-2.6-0.4c0,0-16.4,12-16.5,12.1c-0.2,0.1-0.5-0.2-0.6-0.3c-0.2-0.2-0.5-0.3-0.8-0.4c-0.4-0.1-0.9-0.2-1.4-0.2
		c-1.2-0.1-2.3-0.1-3.3,0.6L229.2,239c-0.8-0.6-2-0.4-2.6,0.4c-0.6,0.8-0.4,2,0.4,2.6l16.1,12c0,0.1,0,0.2,0,0.3v0.6
		c0,0.4-0.1,0.8-0.1,1.1v13.6c0.3,0,0.5,0.1,0.8,0.2c0.9,0.3,1.7,0.8,2.5,1.2c3.7,0.5,6.7,2.3,9.3,4.9c0.4,0.4,0.6,0.7,0.8,1.1h5.6
		l4.2,10.4h7.5c1.5,0,2.8-1.3,2.8-2.8C276.6,283.3,275.4,282,273.8,282z"/>
	<circle id="XMLID_34_" class="st4" cx="248" cy="244.1" r="4.8"/>
</g>
<g id="XMLID_3_">
	<path id="XMLID_44_" class="st4" d="M236.3,275.3c2.1-1.8,4.8-2.9,7.7-2.9c6.5,0,11.8,5.3,11.8,11.8c0,3-1.1,5.7-2.9,7.7l4.3,4.3
		c2.9-3.2,4.7-7.4,4.7-12c0-9.8-8-17.8-17.8-17.8c-4.6,0-8.8,1.8-12,4.7L236.3,275.3z"/>
	<path id="XMLID_45_" class="st4" d="M250.6,293.9c-1.9,1.3-4.1,2-6.6,2c-6.5,0-11.8-5.3-11.8-11.8c0-2.4,0.7-4.7,2-6.6l-4.3-4.3
		c-2.3,3-3.8,6.8-3.8,10.9c0,9.8,8,17.8,17.8,17.8c4.1,0,7.9-1.4,10.9-3.8L250.6,293.9z"/>
</g>
</svg>
