<?xml version="1.0" encoding="UTF-8" standalone="no"?>
<!-- Generator: Adobe Illustrator 19.0.0, SVG Export Plug-In . SVG Version: 6.00 Build 0)  -->

<svg
   xmlns:dc="http://purl.org/dc/elements/1.1/"
   xmlns:cc="http://creativecommons.org/ns#"
   xmlns:rdf="http://www.w3.org/1999/02/22-rdf-syntax-ns#"
   xmlns:svg="http://www.w3.org/2000/svg"
   xmlns="http://www.w3.org/2000/svg"
   xmlns:sodipodi="http://sodipodi.sourceforge.net/DTD/sodipodi-0.dtd"
   xmlns:inkscape="http://www.inkscape.org/namespaces/inkscape"
   version="1.1"
   id="Layer_1"
   x="0px"
   y="0px"
   width="100"
   height="100"
   viewBox="198 218 50 50"
   xml:space="preserve"
   inkscape:version="0.48.4 r9939"
   sodipodi:docname="pin-v3.svg"><metadata
     id="metadata3051"><rdf:RDF><cc:Work
         rdf:about=""><dc:format>image/svg+xml</dc:format><dc:type
           rdf:resource="http://purl.org/dc/dcmitype/StillImage" /><dc:title /></cc:Work></rdf:RDF></metadata><defs
     id="defs3049" /><sodipodi:namedview
     pagecolor="#ffffff"
     bordercolor="#666666"
     borderopacity="1"
     objecttolerance="10"
     gridtolerance="10"
     guidetolerance="10"
     inkscape:pageopacity="0"
     inkscape:pageshadow="2"
     inkscape:window-width="956"
     inkscape:window-height="1041"
     id="namedview3047"
     showgrid="false"
     inkscape:zoom="2.1775"
     inkscape:cx="4.1814569"
     inkscape:cy="76.251774"
     inkscape:window-x="0"
     inkscape:window-y="18"
     inkscape:window-maximized="0"
     inkscape:current-layer="Layer_1" /><style
     type="text/css"
     id="style3039">
	.st3{stroke-linecap:round;stroke-linejoin:round;stroke-miterlimit:10;}
</style><path
     style="fill:#3f51b5;fill-opacity:0.78538811;stroke:#ffffff;stroke-width:1;stroke-linecap:round;stroke-linejoin:round;stroke-miterlimit:4;stroke-opacity:1;stroke-dasharray:none"
     d="m 221.46719,265.92541 c -8.27122,-11.47412 -13.47963,-20.81761 -15.0195,-26.94385 -0.39769,-1.58217 -0.39925,-4.72782 -0.003,-6.78878 1.04577,-5.44424 3.7937,-9.28747 8.18264,-11.44415 2.4619,-1.20976 4.79799,-1.71128 7.95764,-1.70839 5.23241,0.005 8.99195,1.45848 12.06049,4.66338 2.62295,2.73951 4.05538,6.24521 4.42583,10.83169 0.19848,2.45727 -0.03,3.9813 -1.04089,6.94433 -1.05702,3.09814 -3.72452,8.40756 -6.36941,12.67774 -2.89125,4.66791 -8.76286,13.25022 -9.05522,13.23565 -0.0458,-0.002 -0.55798,-0.66271 -1.13821,-1.46762 l 0,0 z"
     id="path3528"
     inkscape:connector-curvature="0" /><g
     id="XMLID_33_"
     transform="matrix(0.38597214,0,0,0.38597214,126.45692,132.97632)"><path
       id="XMLID_41_"
       class="st3"
       d="m 273.8,282 h -4.2 c 0,0 -2.6,-7.3 -3.3,-9.3 -0.5,-1.3 -1.7,-2.2 -3.1,-2.2 0,0 -10.3,0 -10.3,0 -0.1,0 0,-5.3 0,-5.6 0,-2.2 0.1,-4.4 0,-6.7 0,-1 0,-1.9 0,-2.9 0,-0.1 -0.1,-0.9 0,-0.9 0,0 16.9,-12.4 16.9,-12.4 0.8,-0.6 1,-1.8 0.4,-2.6 -0.6,-0.8 -1.8,-1 -2.6,-0.4 0,0 -16.4,12 -16.5,12.1 -0.2,0.1 -0.5,-0.2 -0.6,-0.3 -0.2,-0.2 -0.5,-0.3 -0.8,-0.4 -0.4,-0.1 -0.9,-0.2 -1.4,-0.2 -1.2,-0.1 -2.3,-0.1 -3.3,0.6 L 229.2,239 c -0.8,-0.6 -2,-0.4 -2.6,0.4 -0.6,0.8 -0.4,2 0.4,2.6 l 16.1,12 c 0,0.1 0,0.2 0,0.3 v 0.6 c 0,0.4 -0.1,0.8 -0.1,1.1 v 13.6 c 0.3,0 0.5,0.1 0.8,0.2 0.9,0.3 1.7,0.8 2.5,1.2 3.7,0.5 6.7,2.3 9.3,4.9 0.4,0.4 0.6,0.7 0.8,1.1 h 5.6 l 4.2,10.4 h 7.5 c 1.5,0 2.8,-1.3 2.8,-2.8 0.1,-1.3 -1.1,-2.6 -2.7,-2.6 z"
       inkscape:connector-curvature="0"
       style="stroke-linecap:round;stroke-linejoin:round;stroke-miterlimit:10" /><circle
       id="XMLID_34_"
       class="st4"
       cx="248"
       cy="244.10001"
       r="4.8000002"
       d="m 252.8,244.10001 c 0,2.65096 -2.14903,4.8 -4.8,4.8 -2.65097,0 -4.8,-2.14904 -4.8,-4.8 0,-2.65097 2.14903,-4.8 4.8,-4.8 2.65097,0 4.8,2.14903 4.8,4.8 z"
       sodipodi:cx="248"
       sodipodi:cy="244.10001"
       sodipodi:rx="4.8000002"
       sodipodi:ry="4.8000002"
       style="fill:#ffffff" /></g><g
     id="XMLID_3_"
     transform="matrix(0.38597214,0,0,0.38597214,126.45692,132.97632)"><path
       id="XMLID_44_"
       class="st4"
       d="m 236.3,275.3 c 2.1,-1.8 4.8,-2.9 7.7,-2.9 6.5,0 11.8,5.3 11.8,11.8 0,3 -1.1,5.7 -2.9,7.7 l 4.3,4.3 c 2.9,-3.2 4.7,-7.4 4.7,-12 0,-9.8 -8,-17.8 -17.8,-17.8 -4.6,0 -8.8,1.8 -12,4.7 l 4.2,4.2 z"
       inkscape:connector-curvature="0" /><path
       id="XMLID_45_"
       class="st4"
       d="m 250.6,293.9 c -1.9,1.3 -4.1,2 -6.6,2 -6.5,0 -11.8,-5.3 -11.8,-11.8 0,-2.4 0.7,-4.7 2,-6.6 l -4.3,-4.3 c -2.3,3 -3.8,6.8 -3.8,10.9 0,9.8 8,17.8 17.8,17.8 4.1,0 7.9,-1.4 10.9,-3.8 l -4.2,-4.2 z"
       inkscape:connector-curvature="0" /></g><path
     style="fill:#ffffff;fill-opacity:0.98630138000000001;stroke:none;stroke-width:0.12490381000000000;stroke-linecap:round;stroke-linejoin:round;stroke-miterlimit:4;stroke-opacity:1;stroke-dasharray:none"
     d="m 224.89333,246.41132 c -0.64694,-0.65376 -0.72314,-0.77959 -0.58619,-0.968 0.86522,-1.19032 1.14185,-3.01315 0.65367,-4.30743 -0.50009,-1.32586 -1.63421,-2.42607 -2.93827,-2.85039 -1.18439,-0.38539 -2.99721,-0.12033 -3.94141,0.57628 l -0.42043,0.31018 -0.77993,-0.77299 -0.77993,-0.77299 0.40032,-0.30008 c 0.94713,-0.70997 2.63178,-1.39903 3.42924,-1.40264 l 0.40594,-0.002 0,-2.46882 0,-2.46882 -3.09137,-2.30094 c -1.70026,-1.26553 -3.16163,-2.38546 -3.2475,-2.48876 -0.33234,-0.39976 -0.0347,-1.01439 0.49118,-1.01439 0.14011,0 1.65566,1.04148 3.36789,2.31441 l 3.11314,2.31442 0.47638,-0.14273 c 0.45265,-0.13562 1.18893,-0.0577 1.77262,0.18759 0.13492,0.0567 1.21644,-0.66547 3.43486,-2.29358 1.83869,-1.34943 3.35553,-2.37716 3.51005,-2.37823 0.32713,-0.002 0.66467,0.30741 0.66467,0.60979 0,0.31716 -0.26707,0.53769 -3.70143,3.05656 l -3.10583,2.27792 -0.0336,2.75996 -0.0336,2.75997 0.52658,0.38724 c 0.52442,0.38567 0.53315,0.38725 2.13192,0.38725 2.3761,0 2.25553,-0.10725 3.33474,2.96647 l 0.53722,1.53007 1.02276,0 c 0.85662,0 1.06715,0.0414 1.29611,0.25467 0.372,0.34657 0.36449,0.99012 -0.0157,1.34731 -0.26639,0.25025 -0.41734,0.27158 -1.92241,0.27158 l -1.63331,0 -0.65215,-1.59253 c -0.35868,-0.87588 -0.72728,-1.77519 -0.8191,-1.99846 -0.1268,-0.30826 -0.24364,-0.40594 -0.48561,-0.40594 -0.17524,0 -0.31863,0.0191 -0.31863,0.0425 0,0.0234 0.11242,0.482 0.24981,1.01921 0.53578,2.09486 0.18138,4.06792 -1.03762,5.7768 -0.20827,0.29196 -0.41305,0.53084 -0.45508,0.53084 -0.0421,0 -0.41104,-0.33815 -0.82002,-0.75144 l 0,0 z"
     id="path3530"
     inkscape:connector-curvature="0" /><path
     style="fill:#ffffff;fill-opacity:0.98630138000000001;stroke:none;stroke-width:0.12490381000000000;stroke-linecap:round;stroke-linejoin:round;stroke-miterlimit:4;stroke-opacity:1;stroke-dasharray:none"
     d="m 218.77504,249.17789 c -2.25722,-0.64862 -4.04733,-2.4471 -4.7323,-4.75446 -0.26118,-0.87976 -0.26218,-2.62921 -0.002,-3.51442 0.20931,-0.71214 1.02185,-2.36461 1.16271,-2.36461 0.0452,0 0.40983,0.33117 0.81037,0.73593 l 0.72826,0.73594 -0.33317,0.83278 c -1.56422,3.90994 2.40164,7.69011 6.21103,5.92022 l 0.59738,-0.27756 0.75032,0.74146 0.75033,0.74146 -0.28484,0.2317 c -1.30201,1.05912 -3.83796,1.49457 -5.65808,0.97156 z"
     id="path3532"
     inkscape:connector-curvature="0" /><path
     sodipodi:type="arc"
     style="fill:#ffffff;fill-opacity:1;stroke:#3f51b5;stroke-width:2;stroke-miterlimit:4;stroke-opacity:0.78431373999999998;stroke-dasharray:none"
     id="path4321"
     sodipodi:cx="85.878304"
     sodipodi:cy="26.980482"
     sodipodi:rx="21.584385"
     sodipodi:ry="21.584385"
     d="m 107.46269,26.980482 a 21.584385,21.584385 0 1 1 -43.168771,0 21.584385,21.584385 0 1 1 43.168771,0 z"
     transform="matrix(0.5,0,0,0.5,193.94833,216.16304)" /></svg>