<?xml version="1.0" encoding="UTF-8" standalone="no"?>
<!-- Generator: Adobe Illustrator 19.0.0, SVG Export Plug-In . SVG Version: 6.00 Build 0)  -->

<svg
   xmlns:dc="http://purl.org/dc/elements/1.1/"
   xmlns:cc="http://creativecommons.org/ns#"
   xmlns:rdf="http://www.w3.org/1999/02/22-rdf-syntax-ns#"
   xmlns:svg="http://www.w3.org/2000/svg"
   xmlns="http://www.w3.org/2000/svg"
   xmlns:sodipodi="http://sodipodi.sourceforge.net/DTD/sodipodi-0.dtd"
   xmlns:inkscape="http://www.inkscape.org/namespaces/inkscape"
   version="1.1"
   id="Layer_1"
   x="0px"
   y="0px"
   width="100"
   height="100"
   viewBox="198 218 50 50"
   xml:space="preserve"
   inkscape:version="0.48.4 r9939"
   sodipodi:docname="pin-v2.svg"><metadata
     id="metadata3051"><rdf:RDF><cc:Work
         rdf:about=""><dc:format>image/svg+xml</dc:format><dc:type
           rdf:resource="http://purl.org/dc/dcmitype/StillImage" /><dc:title /></cc:Work></rdf:RDF></metadata><defs
     id="defs3049" /><sodipodi:namedview
     pagecolor="#ffffff"
     bordercolor="#666666"
     borderopacity="1"
     objecttolerance="10"
     gridtolerance="10"
     guidetolerance="10"
     inkscape:pageopacity="0"
     inkscape:pageshadow="2"
     inkscape:window-width="956"
     inkscape:window-height="1041"
     id="namedview3047"
     showgrid="false"
     inkscape:zoom="2.1775"
     inkscape:cx="4.1814569"
     inkscape:cy="76.251774"
     inkscape:window-x="960"
     inkscape:window-y="18"
     inkscape:window-maximized="0"
     inkscape:current-layer="Layer_1" /><style
     type="text/css"
     id="style3039">
	.st3{stroke-linecap:round;stroke-linejoin:round;stroke-miterlimit:10;}
</style><path
     style="fill:#3f51b5;fill-opacity:0.78431374;stroke:#ffffff;stroke-width:1;stroke-linecap:round;stroke-linejoin:round;stroke-miterlimit:4;stroke-opacity:1;stroke-dasharray:none"
     d="m 221.46719,265.92541 c -8.27122,-11.47412 -13.47963,-20.81761 -15.0195,-26.94385 -0.39769,-1.58217 -0.39925,-4.72782 -0.003,-6.78878 1.04577,-5.44424 3.7937,-9.28747 8.18264,-11.44415 2.4619,-1.20976 4.79799,-1.71128 7.95764,-1.70839 5.23241,0.005 8.99195,1.45848 12.06049,4.66338 2.62295,2.73951 4.05538,6.24521 4.42583,10.83169 0.19848,2.45727 -0.03,3.9813 -1.04089,6.94433 -1.05702,3.09814 -3.72452,8.40756 -6.36941,12.67774 -2.89125,4.66791 -8.76286,13.25022 -9.05522,13.23565 -0.0458,-0.002 -0.55798,-0.66271 -1.13821,-1.46762 l 0,0 z"
     id="path3528"
     inkscape:connector-curvature="0" /><path
     sodipodi:type="arc"
     style="fill:#3f51b5;fill-opacity:0.78431374;stroke:#ffffff;stroke-opacity:1;stroke-width:1;stroke-miterlimit:4;stroke-dasharray:none"
     id="path4321"
     sodipodi:cx="85.878304"
     sodipodi:cy="26.980482"
     sodipodi:rx="21.584385"
     sodipodi:ry="21.584385"
     d="m 107.46269,26.980482 a 21.584385,21.584385 0 1 1 -43.168771,0 21.584385,21.584385 0 1 1 43.168771,0 z"
     transform="matrix(0.5,0,0,0.5,193.6372,215.93341)" /><g
     id="XMLID_33_"
     transform="matrix(0.2324295,0,0,0.2324295,179.77223,166.47205)"><path
       id="XMLID_41_"
       class="st3"
       d="m 273.8,282 h -4.2 c 0,0 -2.6,-7.3 -3.3,-9.3 -0.5,-1.3 -1.7,-2.2 -3.1,-2.2 0,0 -10.3,0 -10.3,0 -0.1,0 0,-5.3 0,-5.6 0,-2.2 0.1,-4.4 0,-6.7 0,-1 0,-1.9 0,-2.9 0,-0.1 -0.1,-0.9 0,-0.9 0,0 16.9,-12.4 16.9,-12.4 0.8,-0.6 1,-1.8 0.4,-2.6 -0.6,-0.8 -1.8,-1 -2.6,-0.4 0,0 -16.4,12 -16.5,12.1 -0.2,0.1 -0.5,-0.2 -0.6,-0.3 -0.2,-0.2 -0.5,-0.3 -0.8,-0.4 -0.4,-0.1 -0.9,-0.2 -1.4,-0.2 -1.2,-0.1 -2.3,-0.1 -3.3,0.6 L 229.2,239 c -0.8,-0.6 -2,-0.4 -2.6,0.4 -0.6,0.8 -0.4,2 0.4,2.6 l 16.1,12 c 0,0.1 0,0.2 0,0.3 v 0.6 c 0,0.4 -0.1,0.8 -0.1,1.1 v 13.6 c 0.3,0 0.5,0.1 0.8,0.2 0.9,0.3 1.7,0.8 2.5,1.2 3.7,0.5 6.7,2.3 9.3,4.9 0.4,0.4 0.6,0.7 0.8,1.1 h 5.6 l 4.2,10.4 h 7.5 c 1.5,0 2.8,-1.3 2.8,-2.8 0.1,-1.3 -1.1,-2.6 -2.7,-2.6 z"
       inkscape:connector-curvature="0"
       style="stroke-linecap:round;stroke-linejoin:round;stroke-miterlimit:10" /><circle
       id="XMLID_34_"
       class="st4"
       cx="248"
       cy="244.10001"
       r="4.8000002"
       d="m 252.8,244.10001 c 0,2.65096 -2.14903,4.8 -4.8,4.8 -2.65097,0 -4.8,-2.14904 -4.8,-4.8 0,-2.65097 2.14903,-4.8 4.8,-4.8 2.65097,0 4.8,2.14903 4.8,4.8 z"
       sodipodi:cx="248"
       sodipodi:cy="244.10001"
       sodipodi:rx="4.8000002"
       sodipodi:ry="4.8000002"
       style="fill:#ffffff" /></g><g
     id="XMLID_3_"
     transform="matrix(0.2324295,0,0,0.2324295,179.77223,166.47205)"><path
       id="XMLID_44_"
       class="st4"
       d="m 236.3,275.3 c 2.1,-1.8 4.8,-2.9 7.7,-2.9 6.5,0 11.8,5.3 11.8,11.8 0,3 -1.1,5.7 -2.9,7.7 l 4.3,4.3 c 2.9,-3.2 4.7,-7.4 4.7,-12 0,-9.8 -8,-17.8 -17.8,-17.8 -4.6,0 -8.8,1.8 -12,4.7 l 4.2,4.2 z"
       inkscape:connector-curvature="0" /><path
       id="XMLID_45_"
       class="st4"
       d="m 250.6,293.9 c -1.9,1.3 -4.1,2 -6.6,2 -6.5,0 -11.8,-5.3 -11.8,-11.8 0,-2.4 0.7,-4.7 2,-6.6 l -4.3,-4.3 c -2.3,3 -3.8,6.8 -3.8,10.9 0,9.8 8,17.8 17.8,17.8 4.1,0 7.9,-1.4 10.9,-3.8 l -4.2,-4.2 z"
       inkscape:connector-curvature="0" /></g><path
     style="fill:#ffffff;fill-opacity:0.98630138;stroke:none"
     d="m 239.04989,234.78175 c -0.38958,-0.39369 -0.43546,-0.46946 -0.353,-0.58293 0.52102,-0.71679 0.68761,-1.81448 0.39364,-2.59389 -0.30115,-0.79842 -0.98411,-1.46097 -1.7694,-1.71649 -0.71323,-0.23208 -1.8049,-0.0724 -2.37349,0.34703 l -0.25318,0.18679 -0.46967,-0.46548 -0.46966,-0.4655 0.24106,-0.1807 c 0.57036,-0.42754 1.58484,-0.84248 2.06506,-0.84466 l 0.24446,-8.9e-4 0,-1.48671 0,-1.48671 -1.8616,-1.38561 c -1.02388,-0.76208 -1.90392,-1.4365 -1.95563,-1.49871 -0.20013,-0.24072 -0.0209,-0.61086 0.29579,-0.61086 0.0844,0 0.99704,0.62717 2.02812,1.39373 l 1.8747,1.39373 0.28688,-0.086 c 0.27259,-0.0817 0.71597,-0.0348 1.06746,0.11296 0.0813,0.0341 0.73254,-0.40074 2.06845,-1.38117 1.10724,-0.81261 2.02067,-1.43151 2.11372,-1.43215 0.19699,-9e-4 0.40026,0.18512 0.40026,0.3672 0,0.191 -0.16083,0.3238 -2.22897,1.84065 l -1.87031,1.37175 -0.0202,1.66202 -0.0202,1.66204 0.3171,0.23319 c 0.31581,0.23225 0.32106,0.2332 1.28383,0.2332 1.43087,0 1.35826,-0.0645 2.00816,1.78638 l 0.32351,0.92139 0.6159,0 c 0.51584,0 0.64262,0.025 0.7805,0.15337 0.22401,0.20869 0.21949,0.59624 -0.01,0.81134 -0.16042,0.1507 -0.25132,0.16354 -1.15765,0.16354 l -0.98358,0 -0.39272,-0.95901 c -0.216,-0.52745 -0.43796,-1.069 -0.49325,-1.20345 -0.0764,-0.18564 -0.14672,-0.24447 -0.29243,-0.24447 -0.10549,0 -0.19188,0.0115 -0.19188,0.0256 0,0.0141 0.0677,0.29026 0.15043,0.61377 0.32265,1.26151 0.10923,2.44966 -0.62484,3.47874 -0.12541,0.17582 -0.24874,0.31967 -0.27405,0.31967 -0.0253,0 -0.24753,-0.20364 -0.4938,-0.45251 l 0,0 z"
     id="path3530"
     inkscape:connector-curvature="0" /><path
     style="fill:#ffffff;fill-opacity:0.98630138;stroke:none"
     d="m 235.3655,236.44775 c -1.35928,-0.39059 -2.43727,-1.47362 -2.84975,-2.86309 -0.15728,-0.52978 -0.15789,-1.58329 -9e-4,-2.11636 0.12605,-0.42885 0.61536,-1.42395 0.70018,-1.42395 0.0272,0 0.24678,0.19943 0.48799,0.44317 l 0.43855,0.44319 -0.20062,0.50149 c -0.94197,2.35453 1.44625,4.63092 3.74023,3.56511 l 0.35974,-0.16714 0.45184,0.44649 0.45184,0.44651 -0.17154,0.13953 c -0.78404,0.63779 -2.31119,0.90001 -3.40725,0.58505 z"
     id="path3532"
     inkscape:connector-curvature="0" /></svg>