<?xml version="1.0" encoding="utf-8"?>
<!-- Generator: Adobe Illustrator 19.0.0, SVG Export Plug-In . SVG Version: 6.00 Build 0)  -->
<svg version="1.1" id="Layer_1" xmlns="http://www.w3.org/2000/svg" xmlns:xlink="http://www.w3.org/1999/xlink" x="0px" y="0px"
	 width="800px" height="500px" viewBox="0 0 800 500" style="enable-background:new 0 0 800 500;" xml:space="preserve">
<style type="text/css">
	.st0{fill:#606060;}
	.st1{fill:#3498DB;}
	.st2{opacity:0.1;}
	.st3{fill:#FFFFFF;stroke:#FFFFFF;stroke-linecap:round;stroke-linejoin:round;stroke-miterlimit:10;}
	.st4{fill:#FFFFFF;}
</style>
<g id="XMLID_1_">
	<path id="XMLID_4_" class="st0" d="M322.6,287.5c-6.4-0.2-12.4-3.3-14.9-9.3v22.4c0,0.9-0.5,1.4-1.3,1.4s-1.4-0.5-1.4-1.4v-52.2
		c0-0.9,0.5-1.4,1.4-1.4s1.3,0.5,1.3,1.4v7.7c1.2-3.1,3.1-5.2,5.7-6.9c4.9-2.9,11.1-3.6,17-1.2c8.4,3.4,12.5,11.1,12.3,20.1
		c-0.2,7.8-4.4,15-11.8,17.9C328.2,287.1,325.5,287.6,322.6,287.5z M307.6,263.7v6.7c0.5,8,6.3,14,14.9,14.3
		c6.6,0.1,13.2-3.4,15.9-9.8c0.9-2,1.3-4.5,1.4-6.7c0.2-6-1.8-11.5-6.8-15.5c-2.7-2.1-6-3.3-9.5-3.5c-2.7-0.1-5.3,0.5-7.8,1.7
		C310.6,253.5,307.9,258.1,307.6,263.7z"/>
	<path id="XMLID_11_" class="st0" d="M370.3,246.7c3.3,0.1,6.5,0.9,9.3,2.5c2.6,1.7,4.5,4.1,5.7,7.2v-7.8c0-0.9,0.5-1.4,1.3-1.4
		s1.4,0.5,1.4,1.4v37.1c0,0.9-0.5,1.4-1.4,1.4s-1.3-0.5-1.3-1.4v-7.8c-1.2,3.1-3.1,5.5-5.7,7.2c-4.9,2.9-11.1,3.6-17,1.2
		c-8.4-3.4-12.5-11.1-12.3-20.1c0.2-7.8,4.4-15,11.8-17.9C364.7,247.1,367.4,246.6,370.3,246.7z M385.3,270.5v-6.7
		c-0.3-5.7-2.9-10.3-8.1-12.8c-2.2-1-4.5-1.5-6.9-1.5c-6.6-0.1-13.2,3.4-15.9,9.8c-0.9,2-1.3,4.5-1.4,6.7c-0.2,6,1.8,11.5,6.8,15.5
		c2.7,2.1,6,3.3,9.5,3.5c2.7,0.1,5.3-0.5,7.8-1.7C382.3,280.8,385,276.1,385.3,270.5z"/>
	<path id="XMLID_14_" class="st0" d="M403.4,257c1.7-5.9,7.6-9.9,14-9.9c0.9,0,1.4,0.5,1.4,1.3c0,0.9-0.5,1.3-1.4,1.3
		c-9.9,0-14,8.4-14,17.8v17.9c0,0.9-0.6,1.4-1.3,1.4c-0.9,0-1.4-0.5-1.4-1.4v-37c0-0.7,0.5-1.3,1.4-1.3c0.7,0,1.3,0.6,1.3,1.3V257z"
		/>
	<path id="XMLID_19_" class="st0" d="M453.2,247.3c1.6-1.4,3.5,0.4,2,1.9l-16.8,14.9l18.2,20.7c1.1,1.7-0.9,2.9-1.9,1.8l-18.3-20.8
		l-6.8,6v14c0,1.9-2.7,1.8-2.7,0v-48.5c0-1.9,2.7-1.8,2.7,0v31.2L453.2,247.3z"/>
	<path id="XMLID_21_" class="st1" d="M482.3,246.7c3.3,0.1,6.5,0.9,9.3,2.5c2.6,1.7,4.5,4.1,5.7,7.2v-7.8c0-0.9,0.5-1.4,1.3-1.4
		c0.9,0,1.4,0.5,1.4,1.4v37.1c0,0.9-0.5,1.4-1.4,1.4c-0.9,0-1.3-0.5-1.3-1.4v-7.8c-1.2,3.1-3.1,5.5-5.7,7.2
		c-4.9,2.9-11.1,3.6-17,1.2c-8.4-3.4-12.5-11.1-12.3-20.1c0.2-7.8,4.4-15,11.8-17.9C476.6,247.1,479.4,246.6,482.3,246.7z
		 M497.2,270.5v-6.7c-0.3-5.7-2.9-10.3-8.1-12.8c-2.2-1-4.5-1.5-6.9-1.5c-6.6-0.1-13.2,3.4-15.9,9.8c-0.9,2-1.3,4.5-1.4,6.7
		c-0.2,6,1.8,11.5,6.8,15.5c2.7,2.1,6,3.3,9.5,3.5c2.7,0.1,5.3-0.5,7.8-1.7C494.3,280.8,496.9,276.1,497.2,270.5z"/>
	<path id="XMLID_24_" class="st1" d="M550.1,266.1c0.2,9.1-3.9,16.7-12.3,20.1c-5.9,2.4-12.1,1.7-17-1.2c-2.6-1.7-4.5-3.8-5.7-6.9
		v7.7c0,0.9-0.5,1.4-1.3,1.4c-0.9,0-1.4-0.5-1.4-1.4v-48.4c0-0.9,0.5-1.4,1.4-1.4c0.9,0,1.3,0.5,1.3,1.4V256c2.6-6,8.5-9.1,14.9-9.3
		c2.9-0.1,5.7,0.4,8.2,1.5C545.7,251.1,549.9,258.3,550.1,266.1z M531.1,285c3.5-0.2,6.8-1.4,9.5-3.5c5-4,7-9.5,6.8-15.5
		c-0.1-2.2-0.5-4.7-1.4-6.7c-2.6-6.4-9.3-9.9-15.9-9.8c-8.7,0.3-14.4,6.3-14.9,14.3v6.7c0.3,5.7,2.9,10.3,8.1,12.8
		C525.8,284.4,528.4,285,531.1,285z"/>
	<path id="XMLID_27_" class="st1" d="M563.1,286c0,0.7-0.6,1.3-1.3,1.3c-0.9,0-1.4-0.6-1.4-1.3v-48.6c0-0.7,0.5-1.3,1.4-1.3
		c0.7,0,1.3,0.6,1.3,1.3V286z"/>
	<path id="XMLID_30_" class="st1" d="M614,266.8c0.1,1.1-0.3,2.6-2.4,2.6h-34.8c0.4,3.3,1.6,6.5,3.9,9.2c3.3,3.9,8.1,5.9,13.2,6
		c4.3,0.1,8.6-1.2,12.2-3.9c1.4-1.1,3.3,0.5,1.8,1.9c-3.5,3.3-8.6,4.7-13.7,4.6c-6-0.1-12-2.3-15.6-6.9c-3.3-4.2-5-9-4.6-14.8
		c0.4-8.4,5.8-15.9,14.2-18.2c3.6-0.9,7.8-1,11.7,0C608.4,249.7,613.8,256.9,614,266.8z M576.7,266.8h34.7
		c-0.2-8.5-4.7-14.9-12.5-17c-3.1-0.8-6.7-0.8-9.9,0.1C581.2,252,576.8,259.1,576.7,266.8z"/>
</g>
<g id="XMLID_6_">
	<path id="XMLID_5_" class="st1" d="M248,224.8c-21.2,0-38.8,15.2-42.6,35.2c-0.4,1.9-0.6,3.9-0.7,5.9c0,0.7-0.1,1.5-0.1,2.2
		c0,24,19.4,43.4,43.4,43.4c1.2,0,2.4-0.1,3.6-0.2c1.4-0.1,2.7-0.3,4.1-0.5c20.3-3.6,35.7-21.4,35.7-42.7
		C291.4,244.2,271.9,224.8,248,224.8z"/>
	<path id="XMLID_17_" class="st2" d="M270.8,285.9c-2.8-1.1-4.5-2.6-5.8-5.3c-0.7-1.6-2.9-8-4.7-3.7c-1,2.4,0.1,5.2-1.4,7.5
		c-0.2,0.3-0.8,0.3-0.9-0.1c-0.4-2.5-0.9-5-2.1-7.3c-1.3-2.6-3.2-4.8-4.9-7.1c-1.5-2-2.6-4-3.1-6.4c-0.4-2.3-0.2-4.8-1.1-6.9
		c-1.8-4.1-6.3-6.1-9.6-8.7c-3.6-2.9-7.9-5-10.9-8.6L205.4,260c-0.4,1.9-0.6,3.9-0.7,5.9c0,0.7-0.1,1.5-0.1,2.2
		c0,24,19.4,43.4,43.4,43.4c1.2,0,2.4-0.1,3.6-0.2l23.9-23.9C273.9,287.1,272.4,286.5,270.8,285.9z"/>
</g>
<g id="XMLID_33_">
	<path id="XMLID_41_" class="st3" d="M273.8,282h-4.2c0,0-2.6-7.3-3.3-9.3c-0.5-1.3-1.7-2.2-3.1-2.2c0,0-10.3,0-10.3,0
		c-0.1,0,0-5.3,0-5.6c0-2.2,0.1-4.4,0-6.7c0-1,0-1.9,0-2.9c0-0.1-0.1-0.9,0-0.9c0,0,16.9-12.4,16.9-12.4c0.8-0.6,1-1.8,0.4-2.6
		c-0.6-0.8-1.8-1-2.6-0.4c0,0-16.4,12-16.5,12.1c-0.2,0.1-0.5-0.2-0.6-0.3c-0.2-0.2-0.5-0.3-0.8-0.4c-0.4-0.1-0.9-0.2-1.4-0.2
		c-1.2-0.1-2.3-0.1-3.3,0.6L229.2,239c-0.8-0.6-2-0.4-2.6,0.4c-0.6,0.8-0.4,2,0.4,2.6l16.1,12c0,0.1,0,0.2,0,0.3v0.6
		c0,0.4-0.1,0.8-0.1,1.1v13.6c0.3,0,0.5,0.1,0.8,0.2c0.9,0.3,1.7,0.8,2.5,1.2c3.7,0.5,6.7,2.3,9.3,4.9c0.4,0.4,0.6,0.7,0.8,1.1h5.6
		l4.2,10.4h7.5c1.5,0,2.8-1.3,2.8-2.8C276.6,283.3,275.4,282,273.8,282z"/>
	<circle id="XMLID_34_" class="st4" cx="248" cy="244.1" r="4.8"/>
</g>
<g id="XMLID_3_">
	<path id="XMLID_44_" class="st4" d="M236.3,275.3c2.1-1.8,4.8-2.9,7.7-2.9c6.5,0,11.8,5.3,11.8,11.8c0,3-1.1,5.7-2.9,7.7l4.3,4.3
		c2.9-3.2,4.7-7.4,4.7-12c0-9.8-8-17.8-17.8-17.8c-4.6,0-8.8,1.8-12,4.7L236.3,275.3z"/>
	<path id="XMLID_45_" class="st4" d="M250.6,293.9c-1.9,1.3-4.1,2-6.6,2c-6.5,0-11.8-5.3-11.8-11.8c0-2.4,0.7-4.7,2-6.6l-4.3-4.3
		c-2.3,3-3.8,6.8-3.8,10.9c0,9.8,8,17.8,17.8,17.8c4.1,0,7.9-1.4,10.9-3.8L250.6,293.9z"/>
</g>
</svg>
