<?xml version="1.0" encoding="utf-8"?>
<!-- Generator: Adobe Illustrator 19.0.0, SVG Export Plug-In . SVG Version: 6.00 Build 0)  -->
<svg version="1.1" id="Layer_1" xmlns="http://www.w3.org/2000/svg" xmlns:xlink="http://www.w3.org/1999/xlink" x="0px" y="0px"
	 width="800px" height="500px" viewBox="0 0 800 500" style="enable-background:new 0 0 800 500;" xml:space="preserve">
<style type="text/css">
	.st0{fill:#303030;}
	.st1{fill:#024F9F;}
	.st2{opacity:0.15;}
	.st3{fill:#FFFFFF;}
</style>
<g id="XMLID_1_">
	<path id="XMLID_4_" class="st0" d="M322.6,287.5c-6.4-0.2-12.4-3.3-14.9-9.3v22.4c0,0.9-0.5,1.4-1.3,1.4s-1.4-0.5-1.4-1.4v-52.2
		c0-0.9,0.5-1.4,1.4-1.4s1.3,0.5,1.3,1.4v7.7c1.2-3.1,3.1-5.2,5.7-6.9c4.9-2.9,11.1-3.6,17-1.2c8.4,3.4,12.5,11.1,12.3,20.1
		c-0.2,7.8-4.4,15-11.8,17.9C328.2,287.1,325.5,287.6,322.6,287.5z M307.6,263.7v6.7c0.5,8,6.3,14,14.9,14.3
		c6.6,0.1,13.2-3.4,15.9-9.8c0.9-2,1.3-4.5,1.4-6.7c0.2-6-1.8-11.5-6.8-15.5c-2.7-2.1-6-3.3-9.5-3.5c-2.7-0.1-5.3,0.5-7.8,1.7
		C310.6,253.5,307.9,258.1,307.6,263.7z"/>
	<path id="XMLID_11_" class="st0" d="M370.3,246.7c3.3,0.1,6.5,0.9,9.3,2.5c2.6,1.7,4.5,4.1,5.7,7.2v-7.8c0-0.9,0.5-1.4,1.3-1.4
		s1.4,0.5,1.4,1.4v37.1c0,0.9-0.5,1.4-1.4,1.4s-1.3-0.5-1.3-1.4v-7.8c-1.2,3.1-3.1,5.5-5.7,7.2c-4.9,2.9-11.1,3.6-17,1.2
		c-8.4-3.4-12.5-11.1-12.3-20.1c0.2-7.8,4.4-15,11.8-17.9C364.7,247.1,367.4,246.6,370.3,246.7z M385.3,270.5v-6.7
		c-0.3-5.7-2.9-10.3-8.1-12.8c-2.2-1-4.5-1.5-6.9-1.5c-6.6-0.1-13.2,3.4-15.9,9.8c-0.9,2-1.3,4.5-1.4,6.7c-0.2,6,1.8,11.5,6.8,15.5
		c2.7,2.1,6,3.3,9.5,3.5c2.7,0.1,5.3-0.5,7.8-1.7C382.3,280.8,385,276.1,385.3,270.5z"/>
	<path id="XMLID_14_" class="st0" d="M403.4,257c1.7-5.9,7.6-9.9,14-9.9c0.9,0,1.4,0.5,1.4,1.3c0,0.9-0.5,1.3-1.4,1.3
		c-9.9,0-14,8.4-14,17.8v17.9c0,0.9-0.6,1.4-1.3,1.4c-0.9,0-1.4-0.5-1.4-1.4v-37c0-0.7,0.5-1.3,1.4-1.3c0.7,0,1.3,0.6,1.3,1.3V257z"
		/>
	<path id="XMLID_19_" class="st0" d="M453.2,247.3c1.6-1.4,3.5,0.4,2,1.9l-16.8,14.9l18.2,20.7c1.1,1.7-0.9,2.9-1.9,1.8l-18.3-20.8
		l-6.8,6v14c0,1.9-2.7,1.8-2.7,0v-48.5c0-1.9,2.7-1.8,2.7,0v31.2L453.2,247.3z"/>
	<path id="XMLID_21_" class="st1" d="M482.3,246.7c3.3,0.1,6.5,0.9,9.3,2.5c2.6,1.7,4.5,4.1,5.7,7.2v-7.8c0-0.9,0.5-1.4,1.3-1.4
		c0.9,0,1.4,0.5,1.4,1.4v37.1c0,0.9-0.5,1.4-1.4,1.4c-0.9,0-1.3-0.5-1.3-1.4v-7.8c-1.2,3.1-3.1,5.5-5.7,7.2
		c-4.9,2.9-11.1,3.6-17,1.2c-8.4-3.4-12.5-11.1-12.3-20.1c0.2-7.8,4.4-15,11.8-17.9C476.6,247.1,479.4,246.6,482.3,246.7z
		 M497.2,270.5v-6.7c-0.3-5.7-2.9-10.3-8.1-12.8c-2.2-1-4.5-1.5-6.9-1.5c-6.6-0.1-13.2,3.4-15.9,9.8c-0.9,2-1.3,4.5-1.4,6.7
		c-0.2,6,1.8,11.5,6.8,15.5c2.7,2.1,6,3.3,9.5,3.5c2.7,0.1,5.3-0.5,7.8-1.7C494.3,280.8,496.9,276.1,497.2,270.5z"/>
	<path id="XMLID_24_" class="st1" d="M550.1,266.1c0.2,9.1-3.9,16.7-12.3,20.1c-5.9,2.4-12.1,1.7-17-1.2c-2.6-1.7-4.5-3.8-5.7-6.9
		v7.7c0,0.9-0.5,1.4-1.3,1.4c-0.9,0-1.4-0.5-1.4-1.4v-48.4c0-0.9,0.5-1.4,1.4-1.4c0.9,0,1.3,0.5,1.3,1.4V256c2.6-6,8.5-9.1,14.9-9.3
		c2.9-0.1,5.7,0.4,8.2,1.5C545.7,251.1,549.9,258.3,550.1,266.1z M531.1,285c3.5-0.2,6.8-1.4,9.5-3.5c5-4,7-9.5,6.8-15.5
		c-0.1-2.2-0.5-4.7-1.4-6.7c-2.6-6.4-9.3-9.9-15.9-9.8c-8.7,0.3-14.4,6.3-14.9,14.3v6.7c0.3,5.7,2.9,10.3,8.1,12.8
		C525.8,284.4,528.4,285,531.1,285z"/>
	<path id="XMLID_27_" class="st1" d="M563.1,286c0,0.7-0.6,1.3-1.3,1.3c-0.9,0-1.4-0.6-1.4-1.3v-48.6c0-0.7,0.5-1.3,1.4-1.3
		c0.7,0,1.3,0.6,1.3,1.3V286z"/>
	<path id="XMLID_30_" class="st1" d="M614,266.8c0.1,1.1-0.3,2.6-2.4,2.6h-34.8c0.4,3.3,1.6,6.5,3.9,9.2c3.3,3.9,8.1,5.9,13.2,6
		c4.3,0.1,8.6-1.2,12.2-3.9c1.4-1.1,3.3,0.5,1.8,1.9c-3.5,3.3-8.6,4.7-13.7,4.6c-6-0.1-12-2.3-15.6-6.9c-3.3-4.2-5-9-4.6-14.8
		c0.4-8.4,5.8-15.9,14.2-18.2c3.6-0.9,7.8-1,11.7,0C608.4,249.7,613.8,256.9,614,266.8z M576.7,266.8h34.7
		c-0.2-8.5-4.7-14.9-12.5-17c-3.1-0.8-6.7-0.8-9.9,0.1C581.2,252,576.8,259.1,576.7,266.8z"/>
</g>
<g id="XMLID_2_">
	<path id="XMLID_5_" class="st1" d="M248,224.8c-23.2,0-42.2,18.2-43.3,41.2c0,0.7-0.1,1.5-0.1,2.2c0,24,19.4,43.4,43.4,43.4
		c2.6,0,5.2-0.2,7.7-0.7c20.3-3.6,35.7-21.4,35.7-42.7C291.4,244.2,271.9,224.8,248,224.8z"/>
	<path id="XMLID_9_" class="st2" d="M268.1,284.2c-2.6-3.2-5.4-5.7-9.2-7.6c-1.5-0.7-3-1.4-4.2-2.5c-0.4-0.4-0.8-0.8-1.1-1.2
		c-1.1-0.6-2.1-1.4-2.2-2.6c-0.1-0.3,0.2-0.6,0.4-0.7c-1.1-2-2-4.1-2.9-6.1c-1.9-4.4-4-8.4-7.6-11.7c-3.9-3.6-8.1-7-12.5-9.9l-24,24
		c0,0.7-0.1,1.5-0.1,2.2c0,24,19.4,43.4,43.4,43.4c2.6,0,5.2-0.2,7.7-0.7l21.1-21.1C273.4,288.6,270.3,286.9,268.1,284.2z"/>
</g>
<path id="XMLID_29_" class="st3" d="M246.5,293.5c-8.5,0-15.4-6.9-15.4-15.4c0-5.7,3.2-10.7,7.8-13.3v-4.6c-7,3-11.9,9.9-11.9,17.9
	c0,10.7,8.7,19.5,19.5,19.5c7.1,0,13.3-3.9,16.7-9.6l-2.1-5.3C259.2,289,253.4,293.5,246.5,293.5z"/>
<g id="XMLID_6_">
	<path id="XMLID_10_" class="st3" d="M275.1,284.2h-4.6c0,0-2.8-8-3.6-10.1c-0.5-1.4-1.8-2.4-3.4-2.4c0,0-11.2,0-11.2,0
		c-0.1,0,0-5.7,0-6.1c0-2.4,0.1-4.9,0-7.3c0-1.1,0-2.1,0-3.2c0-0.1-0.1-0.9,0-1c0,0,12.8-9.5,12.8-9.5c0.9-0.7,1.1-1.9,0.4-2.8
		c-0.7-0.9-1.9-1.1-2.8-0.4c0,0-12.3,9.1-12.4,9.2c-0.2,0.2-0.5-0.3-0.6-0.4c-0.3-0.2-0.6-0.3-0.9-0.4c-0.5-0.1-1-0.2-1.5-0.2
		c-1.3-0.1-2.5-0.1-3.6,0.7l-12-8.8c-0.9-0.7-2.2-0.5-2.8,0.4c-0.7,0.9-0.5,2.2,0.4,2.8l12.3,9.1c0,0.1,0,0.2,0,0.4v0.7
		c0,0.4-0.1,0.8-0.1,1.2v16.4c0,3.6,2.9,6.6,6.6,6.6c0.1,0,0.2-0.1,0.3-0.1c0.1,0,0.2,0.1,0.3,0.1h13.7l4.6,11.4h8.2
		c1.7,0,3.1-1.4,3.1-3.1C278.1,285.6,276.8,284.2,275.1,284.2z"/>
	<circle id="XMLID_18_" class="st3" cx="246.9" cy="242.8" r="5.2"/>
</g>
</svg>
