<?xml version="1.0" encoding="UTF-8" standalone="no"?>
<!-- Generator: Adobe Illustrator 19.0.0, SVG Export Plug-In . SVG Version: 6.00 Build 0)  -->

<svg
   xmlns:dc="http://purl.org/dc/elements/1.1/"
   xmlns:cc="http://creativecommons.org/ns#"
   xmlns:rdf="http://www.w3.org/1999/02/22-rdf-syntax-ns#"
   xmlns:svg="http://www.w3.org/2000/svg"
   xmlns="http://www.w3.org/2000/svg"
   xmlns:sodipodi="http://sodipodi.sourceforge.net/DTD/sodipodi-0.dtd"
   xmlns:inkscape="http://www.inkscape.org/namespaces/inkscape"
   version="1.1"
   id="Layer_1"
   x="0px"
   y="0px"
   width="200px"
   height="200px"
   viewBox="198 218 100 100"
   style="enable-background:new 0 0 800 500;"
   xml:space="preserve"
   inkscape:version="0.48.4 r9939"
   sodipodi:docname="logo6.svg"><metadata
     id="metadata15"><rdf:RDF><cc:Work
         rdf:about=""><dc:format>image/svg+xml</dc:format><dc:type
           rdf:resource="http://purl.org/dc/dcmitype/StillImage" /><dc:title></dc:title></cc:Work></rdf:RDF></metadata><defs
     id="defs13" /><sodipodi:namedview
     pagecolor="#ffffff"
     bordercolor="#666666"
     borderopacity="1"
     objecttolerance="10"
     gridtolerance="10"
     guidetolerance="10"
     inkscape:pageopacity="0"
     inkscape:pageshadow="2"
     inkscape:window-width="956"
     inkscape:window-height="1041"
     id="namedview11"
     showgrid="false"
     inkscape:zoom="2.36"
     inkscape:cx="61.214326"
     inkscape:cy="53.158948"
     inkscape:window-x="960"
     inkscape:window-y="18"
     inkscape:window-maximized="0"
     inkscape:current-layer="Layer_1" /><style
     type="text/css"
     id="style3">
	.st3{stroke-linecap:round;stroke-linejoin:round;stroke-miterlimit:10;}
</style><g
     id="XMLID_33_"
     transform="matrix(1.5426861,0,0,1.5426861,-135.67453,-148.85584)"><path
       id="XMLID_41_"
       class="st3"
       d="m 273.8,287 -4.2,0 c 0,0 -2.6,-12.3 -3.3,-14.3 -0.5,-1.3 -1.7,-2.2 -3.1,-2.2 l -9.65178,0 c 0.0867,-5.37238 -0.12937,-9.22379 0,-14.1 l 17.25679,-13.78701 c 0.8,-0.6 0.51309,-2.31185 -0.15558,-3.11185 C 270.00811,238.73386 268.4,238.4 267.6,239 c 0,0 -16.4,12 -16.5,12.1 0,0 -2.17539,-0.41915 -3.27669,-0.42331 -1.07252,-0.004 -3.19407,0.38814 -3.19407,0.38814 l -14.24431,-12.10607 c -0.8,-0.6 -2.69496,-0.2053 -3.29496,0.5947 -0.6,0.8 -0.531,2.71904 0.26905,3.31904 L 242.45178,256 c -0.18795,5.29066 -0.10831,8.80858 -0.1,13.6 3.54547,1.92532 13.14733,4.32281 14.04822,7.4 l 4.6,0 4.2,15.4 8.5,0 c 1.5,0 2.8,-1.3 2.8,-2.8 0.1,-1.3 -1.1,-2.6 -2.7,-2.6 z"
       inkscape:connector-curvature="0"
       style="stroke-linecap:round;stroke-linejoin:round;stroke-miterlimit:10"
       sodipodi:nodetypes="sccscccsccaccsccccccscs" /><circle
       id="XMLID_34_"
       class="st4"
       cx="248"
       cy="244.10001"
       r="4.8000002"
       d="m 252.8,244.10001 c 0,2.65096 -2.14903,4.8 -4.8,4.8 -2.65097,0 -4.8,-2.14904 -4.8,-4.8 0,-2.65097 2.14903,-4.8 4.8,-4.8 2.65097,0 4.8,2.14903 4.8,4.8 z"
       sodipodi:cx="248"
       sodipodi:cy="244.10001"
       sodipodi:rx="4.8000002"
       sodipodi:ry="4.8000002" /></g><path
     inkscape:connector-curvature="0"
     d="m 230.40486,275.84562 c 3.23965,-2.77683 7.4049,-4.47379 11.87869,-4.47379 10.02746,0 18.2037,8.17624 18.2037,18.2037 0,4.62805 -1.69696,8.79331 -4.47379,11.87868 l 6.63354,6.63355 c 4.47379,-4.9366 7.25063,-11.41588 7.25063,-18.51223 0,-15.11833 -12.34149,-27.45981 -27.45981,-27.45981 -7.09636,0 -13.57564,2.77683 -18.51224,7.25062 z"
     class="st4"
     id="XMLID_44_"
     sodipodi:nodetypes="cssccsscc" /><path
     inkscape:connector-curvature="0"
     d="m 252.46528,304.53959 c -2.9311,2.00549 -6.32502,3.08536 -10.18173,3.08536 -10.02746,0 -18.20369,-8.17623 -18.20369,-18.20369 0,-3.70245 1.07987,-7.25063 3.08536,-10.18173 l -6.63354,-6.63355 c -3.54818,4.62806 -5.86221,10.49027 -5.86221,16.81528 0,15.11833 12.34149,27.45981 27.45981,27.45981 6.32502,0 12.18722,-2.15976 16.81528,-5.8622 z"
     class="st4"
     id="XMLID_45_"
     sodipodi:nodetypes="cssccsscc" /></svg>