<?xml version="1.0" encoding="UTF-8" standalone="no"?>
<!-- Generator: Adobe Illustrator 19.0.0, SVG Export Plug-In . SVG Version: 6.00 Build 0)  -->

<svg
   xmlns:dc="http://purl.org/dc/elements/1.1/"
   xmlns:cc="http://creativecommons.org/ns#"
   xmlns:rdf="http://www.w3.org/1999/02/22-rdf-syntax-ns#"
   xmlns:svg="http://www.w3.org/2000/svg"
   xmlns="http://www.w3.org/2000/svg"
   xmlns:sodipodi="http://sodipodi.sourceforge.net/DTD/sodipodi-0.dtd"
   xmlns:inkscape="http://www.inkscape.org/namespaces/inkscape"
   version="1.1"
   id="Layer_1"
   x="0px"
   y="0px"
   width="100"
   height="100"
   viewBox="198 218 50 50"
   xml:space="preserve"
   inkscape:version="0.48.4 r9939"
   sodipodi:docname="pin-bubble.svg"><metadata
     id="metadata3051"><rdf:RDF><cc:Work
         rdf:about=""><dc:format>image/svg+xml</dc:format><dc:type
           rdf:resource="http://purl.org/dc/dcmitype/StillImage" /><dc:title /></cc:Work></rdf:RDF></metadata><defs
     id="defs3049" /><sodipodi:namedview
     pagecolor="#ffffff"
     bordercolor="#666666"
     borderopacity="1"
     objecttolerance="10"
     gridtolerance="10"
     guidetolerance="10"
     inkscape:pageopacity="0"
     inkscape:pageshadow="2"
     inkscape:window-width="1920"
     inkscape:window-height="1080"
     id="namedview3047"
     showgrid="false"
     inkscape:zoom="4.355"
     inkscape:cx="-56.827633"
     inkscape:cy="42.67308"
     inkscape:window-x="0"
     inkscape:window-y="0"
     inkscape:window-maximized="0"
     inkscape:current-layer="Layer_1" /><style
     type="text/css"
     id="style3039">
	.st3{stroke-linecap:round;stroke-linejoin:round;stroke-miterlimit:10;}
</style><path
     style="fill:#ffffff;fill-opacity:1;stroke:#3f51b5;stroke-width:3;stroke-linecap:round;stroke-linejoin:round;stroke-miterlimit:4;stroke-opacity:1;stroke-dasharray:none"
     d="m 221.44335,265.19522 c -8.03506,-11.1465 -13.09474,-20.2232 -14.59065,-26.17451 -0.38633,-1.53699 -0.38784,-4.59282 -0.003,-6.59494 1.01591,-5.28879 3.68538,-9.02228 7.949,-11.11738 2.3916,-1.17522 4.66099,-1.66242 7.73042,-1.65961 5.083,0.005 8.7352,1.41683 11.71612,4.53022 2.54805,2.6613 3.93958,6.0669 4.29945,10.52241 0.19282,2.38711 -0.0291,3.86762 -1.01116,6.74605 -1.02684,3.00968 -3.61817,8.16749 -6.18755,12.31575 -2.80869,4.53462 -8.51264,12.87188 -8.79665,12.85772 -0.0445,-0.002 -0.54205,-0.64378 -1.10572,-1.42571 l 0,0 z"
     id="path3528"
     inkscape:connector-curvature="0" /><g
     id="g3006"
     style="fill:#3f51b5;fill-opacity:1"
     transform="translate(-33.358878,8.584857)"><g
       transform="matrix(0.39234124,0,0,0.39234124,157.7898,124.43923)"
       id="XMLID_33_-3"
       style="fill:#3f51b5;fill-opacity:1"><path
         sodipodi:nodetypes="sccscccsccaccsccccccscs"
         style="fill:#3f51b5;fill-opacity:1;stroke-linecap:round;stroke-linejoin:round;stroke-miterlimit:10"
         inkscape:connector-curvature="0"
         d="m 273.8,287 -4.2,0 c 0,0 -2.6,-12.3 -3.3,-14.3 -0.5,-1.3 -1.7,-2.2 -3.1,-2.2 l -9.65178,0 c 0.0867,-5.37238 -0.12937,-9.22379 0,-14.1 l 17.25679,-13.78701 c 0.8,-0.6 0.51309,-2.31185 -0.15558,-3.11185 C 270.00811,238.73386 268.4,238.4 267.6,239 c 0,0 -16.4,12 -16.5,12.1 0,0 -2.17539,-0.41915 -3.27669,-0.42331 -1.07252,-0.004 -3.19407,0.38814 -3.19407,0.38814 l -14.24431,-12.10607 c -0.8,-0.6 -2.69496,-0.2053 -3.29496,0.5947 -0.6,0.8 -0.531,2.71904 0.26905,3.31904 L 242.45178,256 c -0.18795,5.29066 -0.10831,8.80858 -0.1,13.6 3.54547,1.92532 13.14733,4.32281 14.04822,7.4 l 4.6,0 4.2,15.4 8.5,0 c 1.5,0 2.8,-1.3 2.8,-2.8 0.1,-1.3 -1.1,-2.6 -2.7,-2.6 z"
         class="st3"
         id="XMLID_41_-6" /><circle
         sodipodi:ry="4.8000002"
         sodipodi:rx="4.8000002"
         sodipodi:cy="244.10001"
         sodipodi:cx="248"
         d="m 252.8,244.10001 c 0,2.65096 -2.14903,4.8 -4.8,4.8 -2.65097,0 -4.8,-2.14904 -4.8,-4.8 0,-2.65097 2.14903,-4.8 4.8,-4.8 2.65097,0 4.8,2.14903 4.8,4.8 z"
         r="4.8000002"
         cy="244.10001"
         cx="248"
         class="st4"
         id="XMLID_34_-7"
         style="fill:#3f51b5;fill-opacity:1" /></g><path
       sodipodi:nodetypes="cssccsscc"
       id="XMLID_44_-5"
       class="st4"
       d="m 250.89237,232.45076 c 0.82392,-0.70621 1.88324,-1.13779 3.02103,-1.13779 2.55022,0 4.62963,2.07942 4.62963,4.62964 0,1.17702 -0.43158,2.23634 -1.13779,3.02102 l 1.68707,1.68707 c 1.13778,-1.25549 1.844,-2.90332 1.844,-4.70809 0,-3.84495 -3.13873,-6.98368 -6.98367,-6.98368 -1.80478,0 -3.45261,0.70621 -4.7081,1.844 z"
       inkscape:connector-curvature="0"
       style="fill:#3f51b5;fill-opacity:1" /><path
       sodipodi:nodetypes="cssccsscc"
       id="XMLID_45_-3"
       class="st4"
       d="m 256.50285,239.74831 c -0.74544,0.51005 -1.6086,0.78469 -2.58945,0.78469 -2.55021,0 -4.62962,-2.07941 -4.62962,-4.62963 0,-0.94162 0.27463,-1.84401 0.78467,-2.58945 l -1.68706,-1.68707 c -0.90238,1.17702 -1.4909,2.66792 -1.4909,4.27652 0,3.84494 3.13874,6.98367 6.98368,6.98367 1.6086,0 3.09949,-0.54927 4.27652,-1.49089 z"
       inkscape:connector-curvature="0"
       style="fill:#3f51b5;fill-opacity:1" /></g><path
     sodipodi:type="arc"
     style="fill:#ffffff;fill-opacity:1;stroke:#3f51b5;stroke-width:3;stroke-miterlimit:4;stroke-opacity:1;stroke-dasharray:none"
     id="path4321"
     sodipodi:cx="85.878304"
     sodipodi:cy="26.980482"
     sodipodi:rx="21.584385"
     sodipodi:ry="21.584385"
     d="m 107.46269,26.980482 a 21.584385,21.584385 0 1 1 -43.168771,0 21.584385,21.584385 0 1 1 43.168771,0 z"
     transform="matrix(0.5,0,0,0.5,193.40758,216.16303)" /></svg>